<svg width="923" height="899" viewBox="0 0 923 899" fill="none" xmlns="http://www.w3.org/2000/svg">
<path d="M1320.36 -171.386C1320.36 -171.386 1448.59 52.5139 1334.82 277.886C1281.65 383.256 1196.74 483.719 1092.85 552.889C989.773 621.485 858.588 659.226 752.953 610.407C684.983 579.021 640.698 522.924 586.075 476.754C455.929 366.818 191.173 420.641 139.02 226.191C123.655 168.832 138.038 103.619 167.233 45.5471C233.282 -85.9765 358.318 -194.807 480.728 -281.559C578.625 -350.935 694.471 -410.293 809.896 -435.235C921.846 -459.496 1032.69 -439.013 1122.78 -388.344C1215.76 -335.915 1269.68 -259.724 1320.36 -171.386Z" fill="#FAE8E8"/>
<path opacity="0.7" d="M1320.36 -171.386C1320.36 -171.386 1448.59 52.5139 1334.82 277.886C1281.65 383.256 1196.74 483.719 1092.85 552.889C989.773 621.485 858.588 659.226 752.953 610.407C684.983 579.021 640.698 522.924 586.075 476.754C455.929 366.818 191.173 420.641 139.02 226.191C123.655 168.832 138.038 103.619 167.233 45.5471C233.282 -85.9765 358.318 -194.807 480.728 -281.559C578.625 -350.935 694.471 -410.293 809.896 -435.235C921.846 -459.496 1032.69 -439.013 1122.78 -388.344C1215.76 -335.915 1269.68 -259.724 1320.36 -171.386Z" fill="#FAE8E8"/>
</svg>
