<svg width="100" height="100" viewBox="0 0 100 100" fill="none" xmlns="http://www.w3.org/2000/svg">
<path d="M65.0391 12.2656C78.6719 18.8281 87.5 32.8125 87.5 47.9102C87.5 69.7461 69.7461 87.5 47.9102 87.5C26.0742 87.5 8.32031 69.7461 8.32031 47.9102C8.32031 32.8125 17.1484 18.8086 30.8008 12.2656C31.6797 11.8359 32.7344 12.0898 33.3398 12.832C33.9453 13.5937 33.9453 14.668 33.3398 15.4297C30.6055 18.8477 29.1602 22.8711 29.1602 27.0703C29.1602 31.9922 31.0742 36.6602 34.5508 40.1953C35.3516 40.9961 35.3516 42.3047 34.5508 43.125C31.0742 46.6602 29.1602 51.3281 29.1602 56.25C29.1602 65.8789 36.4648 73.8477 45.8203 74.8828V61.2695L40.5469 66.5625C39.7266 67.3828 38.418 67.3828 37.5977 66.5625C36.7773 65.7422 36.7773 64.4336 37.5977 63.6133L42.8711 58.3203H35.4102C34.2578 58.3203 33.3203 57.3828 33.3203 56.2305C33.3203 55.0781 34.2578 54.1406 35.4102 54.1406H42.8711L37.5977 48.8672C36.7773 48.0469 36.7773 46.7383 37.5977 45.918C38.418 45.0977 39.7266 45.0977 40.5469 45.918L45.8203 51.1914V10.4102C45.8203 9.25781 46.7578 8.32031 47.9102 8.32031C49.0625 8.32031 50 9.25781 50 10.4102V51.2109L55.2734 45.9375C56.0938 45.1172 57.4023 45.1172 58.2227 45.9375C59.043 46.7578 59.043 48.0664 58.2227 48.8867L52.9492 54.1602H60.4102C61.5625 54.1602 62.5 55.0977 62.5 56.25C62.5 57.4023 61.5625 58.3398 60.4102 58.3398H52.9492L58.2227 63.6328C59.043 64.4531 59.043 65.7617 58.2227 66.582C57.4023 67.4023 56.0938 67.4023 55.2734 66.582L50 61.2891V74.9023C59.3555 73.8672 66.6602 65.8984 66.6602 56.2695C66.6602 51.3477 64.7461 46.6797 61.2695 43.1445C60.4688 42.3242 60.4688 41.0352 61.2695 40.2148C64.7461 36.6797 66.6602 32.0117 66.6602 27.0898C66.6602 22.8906 65.2148 18.8672 62.5 15.4492C61.8945 14.6875 61.8945 13.6133 62.5 12.8516C63.0859 12.0703 64.1602 11.8359 65.0391 12.2656ZM83.3398 47.9102C83.3398 36.7578 78.2422 26.6016 69.6875 20C70.4492 22.2656 70.8398 24.6484 70.8398 27.0898C70.8398 32.4609 68.9844 37.5781 65.5859 41.6797C69.0039 45.7812 70.8398 50.8984 70.8398 56.2695C70.8398 68.9062 60.5664 79.1797 47.9297 79.1797C41.6016 79.1797 35.8789 76.6016 31.7383 72.4609C27.5781 68.3008 25 62.5586 25 56.25C25 50.8789 26.8555 45.7813 30.2539 41.6602C26.8555 37.5586 25 32.4414 25 27.0703C25 24.6289 25.3906 22.2656 26.1523 19.9805C17.5977 26.6211 12.5 36.7773 12.5 47.9102C12.5 67.4414 28.3789 83.3203 47.9102 83.3203C67.4414 83.3203 83.3398 67.4414 83.3398 47.9102Z" fill="black"/>
</svg>
