<svg width="46" height="35" viewBox="0 0 46 35" fill="none" xmlns="http://www.w3.org/2000/svg">
<path d="M38.2112 2.9312C35.1677 1.54212 31.9547 0.556665 28.6543 2.11618e-08C28.2027 0.804856 27.794 1.63294 27.4301 2.4808C23.9145 1.95268 20.3394 1.95268 16.8238 2.4808C16.4597 1.63303 16.0511 0.804953 15.5996 1.1855e-08C12.2971 0.561366 9.08199 1.54916 6.03543 2.93846C-0.0127939 11.8592 -1.65237 20.5583 -0.832583 29.134C2.70941 31.7428 6.6739 33.7269 10.8886 35C11.8376 33.7276 12.6774 32.3777 13.399 30.9646C12.0284 30.4543 10.7055 29.8247 9.44575 29.0831C9.77731 28.8434 10.1016 28.5964 10.4149 28.3567C14.0806 30.0752 18.0816 30.9663 22.1324 30.9663C26.1833 30.9663 30.1842 30.0752 33.8499 28.3567C34.1669 28.6146 34.4912 28.8616 34.8191 29.0831C33.5569 29.8259 32.2316 30.4567 30.8586 30.9682C31.5793 32.3806 32.4192 33.7294 33.369 35C37.5873 33.732 41.5548 31.7489 45.0975 29.1376C46.0593 19.1926 43.4542 10.5734 38.2112 2.9312ZM14.4374 23.86C12.1529 23.86 10.2655 21.7933 10.2655 19.2507C10.2655 16.7082 12.0873 14.6233 14.4301 14.6233C16.7728 14.6233 18.6456 16.7082 18.6055 19.2507C18.5654 21.7933 16.7656 23.86 14.4374 23.86ZM29.8275 23.86C27.5394 23.86 25.6593 21.7933 25.6593 19.2507C25.6593 16.7082 27.4811 14.6233 29.8275 14.6233C32.1739 14.6233 34.0321 16.7082 33.992 19.2507C33.952 21.7933 32.1557 23.86 29.8275 23.86Z" fill="#5865F2"/>
</svg>
