<svg width="26" height="28" viewBox="0 1 24 28" fill="none" xmlns="http://www.w3.org/2000/svg">
<path d="M15.5445 13.3757L8.42434 6.25561C8.25966 6.0908 8.03982 6 7.80542 6C7.57101 6 7.35118 6.0908 7.1865 6.25561L6.66214 6.77983C6.32094 7.12142 6.32094 7.6766 6.66214 8.01767L12.6412 13.9967L6.65551 19.9823C6.49083 20.1471 6.3999 20.3668 6.3999 20.6011C6.3999 20.8357 6.49083 21.0554 6.65551 21.2203L7.17986 21.7444C7.34468 21.9092 7.56438 22 7.79879 22C8.03319 22 8.25303 21.9092 8.41771 21.7444L15.5445 14.6178C15.7096 14.4525 15.8003 14.2317 15.7998 13.9971C15.8003 13.7615 15.7096 13.5409 15.5445 13.3757Z" fill="black"/>
</svg>
