<svg width="26" height="28" viewBox="0 0 24 28" fill="none" xmlns="http://www.w3.org/2000/svg">
<path d="M8.25526 14.6243L15.3755 21.7444C15.5401 21.9092 15.76 22 15.9944 22C16.2288 22 16.4486 21.9092 16.6133 21.7444L17.1377 21.2202C17.4789 20.8786 17.4789 20.3234 17.1377 19.9823L11.1587 14.0033L17.1443 8.01768C17.309 7.85286 17.3999 7.63316 17.3999 7.39888C17.3999 7.16435 17.309 6.94464 17.1443 6.7797L16.6199 6.25561C16.4551 6.0908 16.2354 6 16.001 6C15.7666 6 15.5468 6.0908 15.3821 6.25561L8.25526 13.3822C8.09019 13.5475 7.99952 13.7683 8.00004 14.0029C7.99952 14.2385 8.09019 14.4591 8.25526 14.6243Z" fill="black"/>
</svg>
