<svg width="766" height="765" viewBox="0 0 766 765" fill="none" xmlns="http://www.w3.org/2000/svg">
<path d="M1320.36 -305.386C1320.36 -305.386 1448.59 -81.4861 1334.82 143.886C1281.65 249.256 1196.74 349.719 1092.85 418.889C989.773 487.485 858.588 525.226 752.953 476.407C684.983 445.021 640.698 388.924 586.075 342.754C455.929 232.818 191.173 286.641 139.02 92.1905C123.655 34.8318 138.038 -30.3811 167.232 -88.4529C233.282 -219.976 358.318 -328.807 480.727 -415.559C578.625 -484.935 694.47 -544.293 809.896 -569.235C921.846 -593.496 1032.69 -573.013 1122.78 -522.344C1215.76 -469.915 1269.68 -393.724 1320.36 -305.386Z" fill="#FAE8E8"/>
<path opacity="0.7" d="M1320.36 -305.386C1320.36 -305.386 1448.59 -81.4861 1334.82 143.886C1281.65 249.256 1196.74 349.719 1092.85 418.889C989.773 487.485 858.588 525.226 752.953 476.407C684.983 445.021 640.698 388.924 586.075 342.754C455.929 232.818 191.173 286.641 139.02 92.1905C123.655 34.8318 138.038 -30.3811 167.232 -88.4529C233.282 -219.976 358.318 -328.807 480.727 -415.559C578.625 -484.935 694.47 -544.293 809.896 -569.235C921.846 -593.496 1032.69 -573.013 1122.78 -522.344C1215.76 -469.915 1269.68 -393.724 1320.36 -305.386Z" fill="#FAE8E8"/>
</svg>


