<svg width="40" height="40" viewBox="0 0 40 40" fill="none" xmlns="http://www.w3.org/2000/svg">
<g clip-path="url(#clip0_1099_330)">
<path d="M24.2578 19.5898C22.5131 19.5898 21.0157 20.2714 18.1684 19.8372C17.397 19.7008 16.617 19.6182 15.8342 19.5898C13.8842 19.5898 12.771 21.1872 12.771 22.9951C12.771 26.6162 16.121 27.1741 19.0394 27.1741H21.0526C23.9815 27.1741 27.3263 26.6214 27.3263 22.9951C27.321 21.1872 26.2078 19.5898 24.2578 19.5898ZM16.2236 25.2635C15.1499 25.2635 14.6947 23.8556 14.6947 22.9925C14.6947 22.1293 15.1499 20.7188 16.2236 20.7188C17.2973 20.7188 17.7552 22.1293 17.7552 22.9898C17.7552 23.8504 17.2999 25.2635 16.2236 25.2635ZM23.8789 25.2635C22.8052 25.2635 22.3499 23.853 22.3499 22.9898C22.3499 22.1267 22.8052 20.7188 23.8789 20.7188C24.9526 20.7188 25.4078 22.1293 25.4078 22.9898C25.4078 23.8504 24.9552 25.2635 23.8789 25.2635Z" fill="white"/>
<path d="M20 0C16.0444 0 12.1776 1.17298 8.8886 3.37061C5.59962 5.56824 3.03617 8.69181 1.52242 12.3463C0.00866564 16.0009 -0.387401 20.0222 0.384303 23.9018C1.15601 27.7814 3.06082 31.3451 5.85787 34.1421C8.65492 36.9392 12.2186 38.844 16.0982 39.6157C19.9778 40.3874 23.9992 39.9913 27.6537 38.4776C31.3082 36.9638 34.4318 34.4004 36.6294 31.1114C38.827 27.8224 40 23.9556 40 20C40 14.6957 37.8929 9.60859 34.1421 5.85786C30.3914 2.10714 25.3043 0 20 0V0ZM29.2711 24.8316C27.6921 27.9895 23.35 27.9158 20.2421 27.9158C17.0842 27.9158 12.4842 28.0263 10.8421 24.8316C10.2622 23.6081 9.97396 22.2668 10 20.9132C9.98607 19.1932 10.6009 17.5274 11.729 16.2289C11.5145 15.5777 11.4061 14.8962 11.4079 14.2105C11.4079 13.3237 11.6132 12.8789 12.0158 12.0737C13.9026 12.0737 15.1105 12.4447 16.55 13.5579C17.7582 13.2799 18.9945 13.1422 20.2342 13.1474C21.3618 13.1428 22.4861 13.2699 23.5842 13.5263C25 12.4237 26.2158 12.0737 28.0763 12.0737C28.4947 12.8947 28.6842 13.3316 28.6842 14.2105C28.6847 14.8858 28.5763 15.5566 28.3632 16.1974C28.9237 16.8485 29.3494 17.6043 29.6158 18.4211C29.8767 19.2285 30.0064 20.0725 30 20.9211C30 22.2289 29.8658 23.6237 29.2711 24.8316Z" fill="white"/>
</g>
<defs>
<clipPath id="clip0_1099_330">
<rect width="40" height="40" fill="white"/>
</clipPath>
</defs>
</svg>
